<svg xmlns="http://www.w3.org/2000/svg" width="1200" height="390" viewBox="0 0 1200 390" role="img" aria-labelledby="title desc">
  <title id="title">Attributs du joueur Hassrol</title>
  <desc id="desc">Intelligence 90%, Agilité 80%, Perception 80%, Créativité 90%</desc>
  <defs>
    <linearGradient id="panel" x1="0" y1="0" x2="1" y2="1">
      <stop stop-color="#090b14"/><stop offset="1" stop-color="#11091b"/>
    </linearGradient>
    <linearGradient id="cyan"><stop stop-color="#ffffff"/><stop offset="1" stop-color="#b6b6b6"/></linearGradient>
    <linearGradient id="violet"><stop stop-color="#b6b6b6"/><stop offset="1" stop-color="#686868"/></linearGradient>
    <filter id="glow" x="-20%" y="-100%" width="140%" height="300%">
      <feGaussianBlur stdDeviation="4" result="blur"/>
      <feMerge><feMergeNode in="blur"/><feMergeNode in="SourceGraphic"/></feMerge>
    </filter>
    <pattern id="grid" width="32" height="32" patternUnits="userSpaceOnUse">
      <path d="M32 0H0V32" fill="none" stroke="#ffffff" stroke-opacity=".035"/>
    </pattern>
  </defs>
  <rect x="1" y="1" width="1198" height="388" rx="14" fill="url(#panel)" stroke="#293143"/>
  <rect x="1" y="1" width="1198" height="388" rx="14" fill="url(#grid)"/>
  <path d="M1 52h1198" stroke="#ffffff" stroke-opacity=".22"/>
  <path d="M1 388h290l12-8h594l12 8h290" fill="none" stroke="url(#cyan)" stroke-opacity=".55"/>
  <g font-family="'Segoe UI',Arial,sans-serif">
    <circle cx="30" cy="27" r="4" fill="#ffffff" filter="url(#glow)"/>
    <text x="48" y="33" fill="#ffffff" font-size="15" font-weight="700" letter-spacing="3">PLAYER PARAMETERS</text>
    <text x="1168" y="33" fill="#697386" font-size="12" text-anchor="end" letter-spacing="2">LIVE DATA</text>
    <g transform="translate(34 78)">
      <rect width="1132" height="58" rx="7" fill="#111521" stroke="#263044"/>
      <rect x="16" y="14" width="52" height="30" rx="4" fill="#ffffff" fill-opacity=".1" stroke="#ffffff" stroke-opacity=".45"/>
      <text x="42" y="34" fill="#ffffff" font-size="12" font-weight="700" text-anchor="middle">INT</text>
      <text x="88" y="35" fill="#f2f5ff" font-size="17" font-weight="600">Intelligence</text>
      <rect x="310" y="20" width="430" height="17" rx="8.5" fill="#242a38"/>
      <rect x="310" y="20" width="387" height="17" rx="8.5" fill="url(#cyan)" filter="url(#glow)"/>
      <text x="762" y="34" fill="#ffffff" font-size="14" font-weight="700">90%</text>
      <text x="1110" y="35" fill="#aab2c5" font-size="15" text-anchor="end">Résolution de problèmes</text>
    </g>
    <g transform="translate(34 146)">
      <rect width="1132" height="58" rx="7" fill="#111521" stroke="#263044"/>
      <rect x="16" y="14" width="52" height="30" rx="4" fill="#b6b6b6" fill-opacity=".12" stroke="#b6b6b6" stroke-opacity=".6"/>
      <text x="42" y="34" fill="#d8d8d8" font-size="12" font-weight="700" text-anchor="middle">DEX</text>
      <text x="88" y="35" fill="#f2f5ff" font-size="17" font-weight="600">Agilité</text>
      <rect x="310" y="20" width="430" height="17" rx="8.5" fill="#242a38"/>
      <rect x="310" y="20" width="344" height="17" rx="8.5" fill="url(#violet)" filter="url(#glow)"/>
      <text x="762" y="34" fill="#d8d8d8" font-size="14" font-weight="700">80%</text>
      <text x="1110" y="35" fill="#aab2c5" font-size="15" text-anchor="end">Adaptation et apprentissage</text>
    </g>
    <g transform="translate(34 214)">
      <rect width="1132" height="58" rx="7" fill="#111521" stroke="#263044"/>
      <rect x="16" y="14" width="52" height="30" rx="4" fill="#ffffff" fill-opacity=".1" stroke="#ffffff" stroke-opacity=".45"/>
      <text x="42" y="34" fill="#ffffff" font-size="12" font-weight="700" text-anchor="middle">PER</text>
      <text x="88" y="35" fill="#f2f5ff" font-size="17" font-weight="600">Perception</text>
      <rect x="310" y="20" width="430" height="17" rx="8.5" fill="#242a38"/>
      <rect x="310" y="20" width="344" height="17" rx="8.5" fill="url(#cyan)" filter="url(#glow)"/>
      <text x="762" y="34" fill="#ffffff" font-size="14" font-weight="700">80%</text>
      <text x="1110" y="35" fill="#aab2c5" font-size="15" text-anchor="end">Débogage et précision</text>
    </g>
    <g transform="translate(34 282)">
      <rect width="1132" height="58" rx="7" fill="#111521" stroke="#263044"/>
      <rect x="16" y="14" width="52" height="30" rx="4" fill="#686868" fill-opacity=".09" stroke="#686868" stroke-opacity=".55"/>
      <text x="42" y="34" fill="#a5a5a5" font-size="12" font-weight="700" text-anchor="middle">CRE</text>
      <text x="88" y="35" fill="#f2f5ff" font-size="17" font-weight="600">Créativité</text>
      <rect x="310" y="20" width="430" height="17" rx="8.5" fill="#242a38"/>
      <rect x="310" y="20" width="387" height="17" rx="8.5" fill="url(#violet)" filter="url(#glow)"/>
      <text x="762" y="34" fill="#a5a5a5" font-size="14" font-weight="700">90%</text>
      <text x="1110" y="35" fill="#aab2c5" font-size="15" text-anchor="end">Interfaces et nouvelles idées</text>
    </g>
  </g>
</svg>
